<svg width="18" height="19" viewBox="0 0 18 19" fill="none" xmlns="http://www.w3.org/2000/svg">
<path d="M6.672 7.1C6.86008 6.56533 7.23132 6.11449 7.71996 5.82731C8.20861 5.54013 8.78312 5.43515 9.34174 5.53097C9.90037 5.62679 10.4071 5.91722 10.7721 6.35082C11.1371 6.78443 11.3368 7.33322 11.336 7.9C11.336 9.5 8.936 10.3 8.936 10.3M9 13.5H9.008M17 9.5C17 13.9183 13.4183 17.5 9 17.5C4.58172 17.5 1 13.9183 1 9.5C1 5.08172 4.58172 1.5 9 1.5C13.4183 1.5 17 5.08172 17 9.5Z" stroke="white" stroke-width="1.5" stroke-linecap="round" stroke-linejoin="round"/>
</svg>
