<svg width="97" height="96" viewBox="0 0 97 96" fill="none" xmlns="http://www.w3.org/2000/svg">
<rect x="0.5" width="96" height="96" rx="48" fill="#080B27"/>
<path d="M48.316 21.488C48.6462 21.0748 49.0552 20.7312 49.5191 20.4771C49.983 20.2229 50.4928 20.0633 51.0188 20.0075C51.5448 19.9517 52.0767 20.0008 52.5836 20.152C53.0905 20.3031 53.5624 20.5533 53.972 20.888L67.02 31.544C67.7376 32.1299 68.2295 32.9467 68.4119 33.8549C68.5943 34.7632 68.4558 35.7065 68.02 36.524C66.8792 36.1754 65.6929 35.9988 64.5 36H63.3L64.492 34.64L57.62 29.028L51.952 36.004H46.796L54.52 26.5L51.44 23.984L41.848 36H36.728L48.316 21.488ZM58.5 56C57.9696 56 57.4609 56.2107 57.0858 56.5858C56.7107 56.9609 56.5 57.4696 56.5 58C56.5 58.5305 56.7107 59.0392 57.0858 59.4142C57.4609 59.7893 57.9696 60 58.5 60H62.5C63.0304 60 63.5391 59.7893 63.9142 59.4142C64.2893 59.0392 64.5 58.5305 64.5 58C64.5 57.4696 64.2893 56.9609 63.9142 56.5858C63.5391 56.2107 63.0304 56 62.5 56H58.5ZM28.5 38C28.5 37.4696 28.7107 36.9609 29.0858 36.5858C29.4609 36.2107 29.9696 36 30.5 36H32.732L35.912 32H30.5C28.9087 32 27.3826 32.6322 26.2574 33.7574C25.1321 34.8826 24.5 36.4087 24.5 38V62C24.5 64.6522 25.5536 67.1957 27.4289 69.0711C29.3043 70.9465 31.8478 72 34.5 72H64.5C66.6217 72 68.6566 71.1572 70.1569 69.6569C71.6571 68.1566 72.5 66.1218 72.5 64V48C72.5 45.8783 71.6571 43.8435 70.1569 42.3432C68.6566 40.8429 66.6217 40 64.5 40H30.5C29.9696 40 29.4609 39.7893 29.0858 39.4142C28.7107 39.0392 28.5 38.5305 28.5 38ZM28.5 62V43.66C29.124 43.88 29.8 44 30.5 44H64.5C65.5609 44 66.5783 44.4215 67.3284 45.1716C68.0786 45.9217 68.5 46.9392 68.5 48V64C68.5 65.0609 68.0786 66.0783 67.3284 66.8284C66.5783 67.5786 65.5609 68 64.5 68H34.5C32.9087 68 31.3826 67.3679 30.2574 66.2427C29.1321 65.1174 28.5 63.5913 28.5 62Z" fill="#204FFE"/>
<path d="M66.5 72.9375C72.5406 72.9375 77.4375 68.0406 77.4375 62C77.4375 55.9594 72.5406 51.0625 66.5 51.0625C60.4594 51.0625 55.5625 55.9594 55.5625 62C55.5625 68.0406 60.4594 72.9375 66.5 72.9375Z" fill="#EB3795" stroke="#EB3795" stroke-width="2.625" stroke-linecap="round" stroke-linejoin="round"/>
<path d="M70.4375 58.0625L62.5625 65.9375M62.5625 58.0625L70.4375 65.9375" stroke="white" stroke-width="2.625" stroke-linecap="round" stroke-linejoin="round"/>
</svg>
